<?xml version="1.0" encoding="UTF-8" standalone="no"?><svg xmlns="http://www.w3.org/2000/svg" xmlns:xlink="http://www.w3.org/1999/xlink" contentScriptType="application/ecmascript" contentStyleType="text/css" height="341px" preserveAspectRatio="none" style="width:508px;height:341px;" version="1.1" viewBox="0 0 508 341" width="508px" zoomAndPan="magnify"><defs><filter height="300%" id="fvyag4040cpfd" width="300%" x="-1" y="-1"><feGaussianBlur result="blurOut" stdDeviation="2.0"/><feColorMatrix in="blurOut" result="blurOut2" type="matrix" values="0 0 0 0 0 0 0 0 0 0 0 0 0 0 0 0 0 0 .4 0"/><feOffset dx="4.0" dy="4.0" in="blurOut2" result="blurOut3"/><feBlend in="SourceGraphic" in2="blurOut3" mode="normal"/></filter></defs><g><!--class Controller--><rect fill="#FEFECE" filter="url(#fvyag4040cpfd)" height="99.2188" id="Controller" style="stroke: #A80036; stroke-width: 1.5;" width="124" x="43" y="21"/><ellipse cx="71.95" cy="37" fill="#ADD1B2" rx="11" ry="11" style="stroke: #A80036; stroke-width: 1.0;"/><path d="M74.9188,42.6406 Q74.3406,42.9375 73.7,43.0781 Q73.0594,43.2344 72.3563,43.2344 Q69.8563,43.2344 68.5281,41.5938 Q67.2156,39.9375 67.2156,36.8125 Q67.2156,33.6875 68.5281,32.0313 Q69.8563,30.375 72.3563,30.375 Q73.0594,30.375 73.7,30.5313 Q74.3563,30.6875 74.9188,30.9844 L74.9188,33.7031 Q74.2938,33.125 73.7,32.8594 Q73.1063,32.5781 72.4813,32.5781 Q71.1375,32.5781 70.45,33.6563 Q69.7625,34.7188 69.7625,36.8125 Q69.7625,38.9063 70.45,39.9844 Q71.1375,41.0469 72.4813,41.0469 Q73.1063,41.0469 73.7,40.7813 Q74.2938,40.5 74.9188,39.9219 L74.9188,42.6406 Z "/><text fill="#000000" font-family="sans-serif" font-size="12" lengthAdjust="spacingAndGlyphs" textLength="61" x="89.05" y="41.1543">Controller</text><line style="stroke: #A80036; stroke-width: 1.5;" x1="44" x2="166" y1="53" y2="53"/><rect fill="none" height="6" style="stroke: #C82930; stroke-width: 1.0;" width="6" x="51" y="61.9023"/><text fill="#000000" font-family="sans-serif" font-size="11" lengthAdjust="spacingAndGlyphs" textLength="88" x="63" y="67.2104">Board m_board</text><line style="stroke: #A80036; stroke-width: 1.5;" x1="44" x2="166" y1="73.8047" y2="73.8047"/><ellipse cx="54" cy="85.707" fill="#84BE84" rx="3" ry="3" style="stroke: #038048; stroke-width: 1.0;"/><text fill="#000000" font-family="sans-serif" font-size="11" lengthAdjust="spacingAndGlyphs" textLength="64" x="63" y="88.0151">Controller()</text><ellipse cx="54" cy="98.5117" fill="#84BE84" rx="3" ry="3" style="stroke: #038048; stroke-width: 1.0;"/><text fill="#000000" font-family="sans-serif" font-size="11" lengthAdjust="spacingAndGlyphs" textLength="98" x="63" y="100.8198">Controller(Board)</text><ellipse cx="54" cy="111.3164" fill="#84BE84" rx="3" ry="3" style="stroke: #038048; stroke-width: 1.0;"/><text fill="#000000" font-family="sans-serif" font-size="11" lengthAdjust="spacingAndGlyphs" textLength="54" x="63" y="113.6245">void run()</text><!--class Board--><rect fill="#FEFECE" filter="url(#fvyag4040cpfd)" height="124.8281" id="Board" style="stroke: #A80036; stroke-width: 1.5;" width="295" x="202.5" y="8"/><ellipse cx="327.25" cy="24" fill="#ADD1B2" rx="11" ry="11" style="stroke: #A80036; stroke-width: 1.0;"/><path d="M330.2188,29.6406 Q329.6406,29.9375 329,30.0781 Q328.3594,30.2344 327.6563,30.2344 Q325.1563,30.2344 323.8281,28.5938 Q322.5156,26.9375 322.5156,23.8125 Q322.5156,20.6875 323.8281,19.0313 Q325.1563,17.375 327.6563,17.375 Q328.3594,17.375 329,17.5313 Q329.6563,17.6875 330.2188,17.9844 L330.2188,20.7031 Q329.5938,20.125 329,19.8594 Q328.4063,19.5781 327.7813,19.5781 Q326.4375,19.5781 325.75,20.6563 Q325.0625,21.7188 325.0625,23.8125 Q325.0625,25.9063 325.75,26.9844 Q326.4375,28.0469 327.7813,28.0469 Q328.4063,28.0469 329,27.7813 Q329.5938,27.5 330.2188,26.9219 L330.2188,29.6406 Z "/><text fill="#000000" font-family="sans-serif" font-size="12" lengthAdjust="spacingAndGlyphs" textLength="37" x="347.75" y="28.1543">Board</text><line style="stroke: #A80036; stroke-width: 1.5;" x1="203.5" x2="496.5" y1="40" y2="40"/><ellipse cx="213.5" cy="51.9023" fill="none" rx="3" ry="3" style="stroke: #038048; stroke-width: 1.0;"/><text fill="#000000" font-family="sans-serif" font-size="11" lengthAdjust="spacingAndGlyphs" text-decoration="underline" textLength="139" x="222.5" y="54.2104">final const int ROW_SIZE</text><line style="stroke: #000000; stroke-width: 1.0;" x1="222.5" x2="361.5" y1="56.2104" y2="56.2104"/><ellipse cx="213.5" cy="64.707" fill="none" rx="3" ry="3" style="stroke: #038048; stroke-width: 1.0;"/><text fill="#000000" font-family="sans-serif" font-size="11" lengthAdjust="spacingAndGlyphs" text-decoration="underline" textLength="137" x="222.5" y="67.0151">final const int COL_SIZE</text><line style="stroke: #000000; stroke-width: 1.0;" x1="222.5" x2="359.5" y1="69.0151" y2="69.0151"/><rect fill="none" height="6" style="stroke: #C82930; stroke-width: 1.0;" width="6" x="210.5" y="74.5117"/><text fill="#000000" font-family="sans-serif" font-size="11" lengthAdjust="spacingAndGlyphs" textLength="269" x="222.5" y="79.8198">std::vector&lt;std::shared_ptr&lt;Piece&gt;&gt; m_board</text><line style="stroke: #A80036; stroke-width: 1.5;" x1="203.5" x2="496.5" y1="86.4141" y2="86.4141"/><ellipse cx="213.5" cy="98.3164" fill="#84BE84" rx="3" ry="3" style="stroke: #038048; stroke-width: 1.0;"/><text fill="#000000" font-family="sans-serif" font-size="11" lengthAdjust="spacingAndGlyphs" textLength="42" x="222.5" y="100.6245">Board()</text><ellipse cx="213.5" cy="111.1211" fill="#84BE84" rx="3" ry="3" style="stroke: #038048; stroke-width: 1.0;"/><text fill="#000000" font-family="sans-serif" font-size="11" lengthAdjust="spacingAndGlyphs" textLength="250" x="222.5" y="113.4292">void movePiece(Position start, Position end)</text><ellipse cx="213.5" cy="123.9258" fill="#84BE84" rx="3" ry="3" style="stroke: #038048; stroke-width: 1.0;"/><text fill="#000000" font-family="sans-serif" font-size="11" lengthAdjust="spacingAndGlyphs" textLength="97" x="222.5" y="126.2339">std::string print()</text><!--class Position--><rect fill="#FEFECE" filter="url(#fvyag4040cpfd)" height="137.6328" id="Position" style="stroke: #A80036; stroke-width: 1.5;" width="198" x="6" y="193"/><ellipse cx="75.75" cy="209" fill="#ADD1B2" rx="11" ry="11" style="stroke: #A80036; stroke-width: 1.0;"/><path d="M78.7188,214.6406 Q78.1406,214.9375 77.5,215.0781 Q76.8594,215.2344 76.1563,215.2344 Q73.6563,215.2344 72.3281,213.5938 Q71.0156,211.9375 71.0156,208.8125 Q71.0156,205.6875 72.3281,204.0313 Q73.6563,202.375 76.1563,202.375 Q76.8594,202.375 77.5,202.5313 Q78.1563,202.6875 78.7188,202.9844 L78.7188,205.7031 Q78.0938,205.125 77.5,204.8594 Q76.9063,204.5781 76.2813,204.5781 Q74.9375,204.5781 74.25,205.6563 Q73.5625,206.7188 73.5625,208.8125 Q73.5625,210.9063 74.25,211.9844 Q74.9375,213.0469 76.2813,213.0469 Q76.9063,213.0469 77.5,212.7813 Q78.0938,212.5 78.7188,211.9219 L78.7188,214.6406 Z "/><text fill="#000000" font-family="sans-serif" font-size="12" lengthAdjust="spacingAndGlyphs" textLength="50" x="96.25" y="213.1543">Position</text><line style="stroke: #A80036; stroke-width: 1.5;" x1="7" x2="203" y1="225" y2="225"/><rect fill="none" height="6" style="stroke: #C82930; stroke-width: 1.0;" width="6" x="14" y="233.9023"/><text fill="#000000" font-family="sans-serif" font-size="11" lengthAdjust="spacingAndGlyphs" textLength="41" x="26" y="239.2104">int m_x</text><rect fill="none" height="6" style="stroke: #C82930; stroke-width: 1.0;" width="6" x="14" y="246.707"/><text fill="#000000" font-family="sans-serif" font-size="11" lengthAdjust="spacingAndGlyphs" textLength="41" x="26" y="252.0151">int m_y</text><line style="stroke: #A80036; stroke-width: 1.5;" x1="7" x2="203" y1="258.6094" y2="258.6094"/><ellipse cx="17" cy="270.5117" fill="#84BE84" rx="3" ry="3" style="stroke: #038048; stroke-width: 1.0;"/><text fill="#000000" font-family="sans-serif" font-size="11" lengthAdjust="spacingAndGlyphs" textLength="53" x="26" y="272.8198">Position()</text><ellipse cx="17" cy="283.3164" fill="#84BE84" rx="3" ry="3" style="stroke: #038048; stroke-width: 1.0;"/><text fill="#000000" font-family="sans-serif" font-size="11" lengthAdjust="spacingAndGlyphs" textLength="109" x="26" y="285.6245">Position(int x, int y)</text><ellipse cx="17" cy="296.1211" fill="#84BE84" rx="3" ry="3" style="stroke: #038048; stroke-width: 1.0;"/><text fill="#000000" font-family="sans-serif" font-size="11" lengthAdjust="spacingAndGlyphs" textLength="172" x="26" y="298.4292">operator=( const Piece&amp; rhs )</text><ellipse cx="17" cy="308.9258" fill="#84BE84" rx="3" ry="3" style="stroke: #038048; stroke-width: 1.0;"/><text fill="#000000" font-family="sans-serif" font-size="11" lengthAdjust="spacingAndGlyphs" textLength="51" x="26" y="311.2339">int getX()</text><ellipse cx="17" cy="321.7305" fill="#84BE84" rx="3" ry="3" style="stroke: #038048; stroke-width: 1.0;"/><text fill="#000000" font-family="sans-serif" font-size="11" lengthAdjust="spacingAndGlyphs" textLength="51" x="26" y="324.0386">int getY()</text><!--link Controller to Board--><!--link Controller to Position--><!--
@startuml mainClassDiagram
class Controller {
  + Controller()
  + Controller(Board)
  + void run()
  - Board m_board
}

class Board {
  + Board()
  + void movePiece(Position start, Position end)
  + std::string print()
  + {static} final const int ROW_SIZE
  + {static} final const int COL_SIZE
  - std::vector<std::shared_ptr<Piece>> m_board
}

class Position {
  + Position()
  + Position(int x, int y)
  + operator=( const Piece& rhs )
  + int getX()
  + int getY()
  - int m_x
  - int m_y
}
@enduml

PlantUML version 1.2018.13(Mon Nov 26 09:11:51 PST 2018)
(GPL source distribution)
Java Runtime: OpenJDK Runtime Environment
JVM: OpenJDK 64-Bit Server VM
Java Version: 11.0.8+10-post-Ubuntu-0ubuntu120.04
Operating System: Linux
OS Version: 4.19.104-microsoft-standard
Default Encoding: UTF-8
Language: en
Country: null
--></g></svg>