<?xml version="1.0" encoding="UTF-8" standalone="no"?><svg xmlns="http://www.w3.org/2000/svg" xmlns:xlink="http://www.w3.org/1999/xlink" contentScriptType="application/ecmascript" contentStyleType="text/css" height="328px" preserveAspectRatio="none" style="width:484px;height:328px;" version="1.1" viewBox="0 0 484 328" width="484px" zoomAndPan="magnify"><defs><filter height="300%" id="f9k5syy0anra7" width="300%" x="-1" y="-1"><feGaussianBlur result="blurOut" stdDeviation="2.0"/><feColorMatrix in="blurOut" result="blurOut2" type="matrix" values="0 0 0 0 0 0 0 0 0 0 0 0 0 0 0 0 0 0 .4 0"/><feOffset dx="4.0" dy="4.0" in="blurOut2" result="blurOut3"/><feBlend in="SourceGraphic" in2="blurOut3" mode="normal"/></filter></defs><g><!--class Piece--><rect fill="#FEFECE" filter="url(#f9k5syy0anra7)" height="163.2422" id="Piece" style="stroke: #A80036; stroke-width: 1.5;" width="215" x="131.5" y="8"/><ellipse cx="218.25" cy="24" fill="#A9DCDF" rx="11" ry="11" style="stroke: #A80036; stroke-width: 1.0;"/><path d="M218.3594,19.3438 L217.2031,24.4219 L219.5313,24.4219 L218.3594,19.3438 Z M216.875,17.1094 L219.8594,17.1094 L223.2188,29.5 L220.7656,29.5 L220,26.4375 L216.7188,26.4375 L215.9688,29.5 L213.5313,29.5 L216.875,17.1094 Z "/><text fill="#000000" font-family="sans-serif" font-size="12" font-style="italic" lengthAdjust="spacingAndGlyphs" textLength="33" x="238.75" y="28.1543">Piece</text><line style="stroke: #A80036; stroke-width: 1.5;" x1="132.5" x2="345.5" y1="40" y2="40"/><polygon fill="none" points="142.5,46.9023,146.5,50.9023,142.5,54.9023,138.5,50.9023" style="stroke: #B38D22; stroke-width: 1.0;"/><text fill="#000000" font-family="sans-serif" font-size="11" lengthAdjust="spacingAndGlyphs" textLength="79" x="151.5" y="54.2104">Color m_color</text><polygon fill="none" points="142.5,59.707,146.5,63.707,142.5,67.707,138.5,63.707" style="stroke: #B38D22; stroke-width: 1.0;"/><text fill="#000000" font-family="sans-serif" font-size="11" lengthAdjust="spacingAndGlyphs" textLength="87" x="151.5" y="67.0151">Position m_pos</text><polygon fill="none" points="142.5,72.5117,146.5,76.5117,142.5,80.5117,138.5,76.5117" style="stroke: #B38D22; stroke-width: 1.0;"/><text fill="#000000" font-family="sans-serif" font-size="11" lengthAdjust="spacingAndGlyphs" textLength="102" x="151.5" y="79.8198">bool m_hasMoved</text><line style="stroke: #A80036; stroke-width: 1.5;" x1="132.5" x2="345.5" y1="86.4141" y2="86.4141"/><ellipse cx="142.5" cy="98.3164" fill="#84BE84" rx="3" ry="3" style="stroke: #038048; stroke-width: 1.0;"/><text fill="#000000" font-family="sans-serif" font-size="11" lengthAdjust="spacingAndGlyphs" textLength="83" x="151.5" y="100.6245">Piece(Position)</text><ellipse cx="142.5" cy="111.1211" fill="#84BE84" rx="3" ry="3" style="stroke: #038048; stroke-width: 1.0;"/><text fill="#000000" font-family="sans-serif" font-size="11" font-style="italic" lengthAdjust="spacingAndGlyphs" textLength="189" x="151.5" y="113.4292">std::vector&lt;Position&gt; getMoves()</text><ellipse cx="142.5" cy="123.9258" fill="#84BE84" rx="3" ry="3" style="stroke: #038048; stroke-width: 1.0;"/><text fill="#000000" font-family="sans-serif" font-size="11" font-style="italic" lengthAdjust="spacingAndGlyphs" textLength="166" x="151.5" y="126.2339">bool checkMove(Position pos)</text><ellipse cx="142.5" cy="136.7305" fill="#84BE84" rx="3" ry="3" style="stroke: #038048; stroke-width: 1.0;"/><text fill="#000000" font-family="sans-serif" font-size="11" lengthAdjust="spacingAndGlyphs" textLength="89" x="151.5" y="139.0386">void setMoved()</text><ellipse cx="142.5" cy="149.5352" fill="#84BE84" rx="3" ry="3" style="stroke: #038048; stroke-width: 1.0;"/><text fill="#000000" font-family="sans-serif" font-size="11" lengthAdjust="spacingAndGlyphs" textLength="90" x="151.5" y="151.8433">Piece promote()</text><polygon fill="#FFFF44" points="142.5,157.3398,146.5,161.3398,142.5,165.3398,138.5,161.3398" style="stroke: #B38D22; stroke-width: 1.0;"/><text fill="#000000" font-family="sans-serif" font-size="11" lengthAdjust="spacingAndGlyphs" textLength="93" x="151.5" y="164.6479">bool hasMoved()</text><!--class Color--><rect fill="#FEFECE" filter="url(#f9k5syy0anra7)" height="73.6094" id="Color" style="stroke: #A80036; stroke-width: 1.5;" width="64" x="382" y="52.5"/><ellipse cx="397" cy="68.5" fill="#EB937F" rx="11" ry="11" style="stroke: #A80036; stroke-width: 1.0;"/><path d="M401.1094,74.5 L393.3906,74.5 L393.3906,62.1094 L401.1094,62.1094 L401.1094,64.2656 L395.8438,64.2656 L395.8438,66.9375 L400.6094,66.9375 L400.6094,69.0938 L395.8438,69.0938 L395.8438,72.3438 L401.1094,72.3438 L401.1094,74.5 Z "/><text fill="#000000" font-family="sans-serif" font-size="12" lengthAdjust="spacingAndGlyphs" textLength="32" x="411" y="72.6543">Color</text><line style="stroke: #A80036; stroke-width: 1.5;" x1="383" x2="445" y1="84.5" y2="84.5"/><text fill="#000000" font-family="sans-serif" font-size="11" lengthAdjust="spacingAndGlyphs" textLength="36" x="388" y="98.7104">BLACK</text><text fill="#000000" font-family="sans-serif" font-size="11" lengthAdjust="spacingAndGlyphs" textLength="34" x="388" y="111.5151">WHITE</text><line style="stroke: #A80036; stroke-width: 1.5;" x1="383" x2="445" y1="118.1094" y2="118.1094"/><!--class King--><rect fill="#FEFECE" filter="url(#f9k5syy0anra7)" height="86.4141" id="King" style="stroke: #A80036; stroke-width: 1.5;" width="216" x="6" y="231"/><ellipse cx="96.75" cy="247" fill="#ADD1B2" rx="11" ry="11" style="stroke: #A80036; stroke-width: 1.0;"/><path d="M99.7188,252.6406 Q99.1406,252.9375 98.5,253.0781 Q97.8594,253.2344 97.1563,253.2344 Q94.6563,253.2344 93.3281,251.5938 Q92.0156,249.9375 92.0156,246.8125 Q92.0156,243.6875 93.3281,242.0313 Q94.6563,240.375 97.1563,240.375 Q97.8594,240.375 98.5,240.5313 Q99.1563,240.6875 99.7188,240.9844 L99.7188,243.7031 Q99.0938,243.125 98.5,242.8594 Q97.9063,242.5781 97.2813,242.5781 Q95.9375,242.5781 95.25,243.6563 Q94.5625,244.7188 94.5625,246.8125 Q94.5625,248.9063 95.25,249.9844 Q95.9375,251.0469 97.2813,251.0469 Q97.9063,251.0469 98.5,250.7813 Q99.0938,250.5 99.7188,249.9219 L99.7188,252.6406 Z "/><text fill="#000000" font-family="sans-serif" font-size="12" lengthAdjust="spacingAndGlyphs" textLength="26" x="117.25" y="251.1543">King</text><line style="stroke: #A80036; stroke-width: 1.5;" x1="7" x2="221" y1="263" y2="263"/><line style="stroke: #A80036; stroke-width: 1.5;" x1="7" x2="221" y1="271" y2="271"/><ellipse cx="17" cy="282.9023" fill="#84BE84" rx="3" ry="3" style="stroke: #038048; stroke-width: 1.0;"/><text fill="#000000" font-family="sans-serif" font-size="11" lengthAdjust="spacingAndGlyphs" textLength="77" x="26" y="285.2104">King(Position)</text><ellipse cx="17" cy="295.707" fill="#84BE84" rx="3" ry="3" style="stroke: #038048; stroke-width: 1.0;"/><text fill="#000000" font-family="sans-serif" font-size="11" lengthAdjust="spacingAndGlyphs" textLength="190" x="26" y="298.0151">std::vector&lt;Position&gt; getMoves()</text><ellipse cx="17" cy="308.5117" fill="#84BE84" rx="3" ry="3" style="stroke: #038048; stroke-width: 1.0;"/><text fill="#000000" font-family="sans-serif" font-size="11" lengthAdjust="spacingAndGlyphs" textLength="167" x="26" y="310.8198">bool checkMove(Position pos)</text><!--class NullPiece--><rect fill="#FEFECE" filter="url(#f9k5syy0anra7)" height="86.4141" id="NullPiece" style="stroke: #A80036; stroke-width: 1.5;" width="216" x="257" y="231"/><ellipse cx="332.25" cy="247" fill="#ADD1B2" rx="11" ry="11" style="stroke: #A80036; stroke-width: 1.0;"/><path d="M335.2188,252.6406 Q334.6406,252.9375 334,253.0781 Q333.3594,253.2344 332.6563,253.2344 Q330.1563,253.2344 328.8281,251.5938 Q327.5156,249.9375 327.5156,246.8125 Q327.5156,243.6875 328.8281,242.0313 Q330.1563,240.375 332.6563,240.375 Q333.3594,240.375 334,240.5313 Q334.6563,240.6875 335.2188,240.9844 L335.2188,243.7031 Q334.5938,243.125 334,242.8594 Q333.4063,242.5781 332.7813,242.5781 Q331.4375,242.5781 330.75,243.6563 Q330.0625,244.7188 330.0625,246.8125 Q330.0625,248.9063 330.75,249.9844 Q331.4375,251.0469 332.7813,251.0469 Q333.4063,251.0469 334,250.7813 Q334.5938,250.5 335.2188,249.9219 L335.2188,252.6406 Z "/><text fill="#000000" font-family="sans-serif" font-size="12" lengthAdjust="spacingAndGlyphs" textLength="57" x="352.75" y="251.1543">NullPiece</text><line style="stroke: #A80036; stroke-width: 1.5;" x1="258" x2="472" y1="263" y2="263"/><line style="stroke: #A80036; stroke-width: 1.5;" x1="258" x2="472" y1="271" y2="271"/><ellipse cx="268" cy="282.9023" fill="#84BE84" rx="3" ry="3" style="stroke: #038048; stroke-width: 1.0;"/><text fill="#000000" font-family="sans-serif" font-size="11" lengthAdjust="spacingAndGlyphs" textLength="104" x="277" y="285.2104">NullPiece(Position)</text><ellipse cx="268" cy="295.707" fill="#84BE84" rx="3" ry="3" style="stroke: #038048; stroke-width: 1.0;"/><text fill="#000000" font-family="sans-serif" font-size="11" lengthAdjust="spacingAndGlyphs" textLength="190" x="277" y="298.0151">std::vector&lt;Position&gt; getMoves()</text><ellipse cx="268" cy="308.5117" fill="#84BE84" rx="3" ry="3" style="stroke: #038048; stroke-width: 1.0;"/><text fill="#000000" font-family="sans-serif" font-size="11" lengthAdjust="spacingAndGlyphs" textLength="167" x="277" y="310.8198">bool checkMove(Position pos)</text><!--link Piece to King--><path d="M172.5,187.59 C162.08,202.8 151.81,217.8 142.85,230.87 " fill="none" id="Piece-King" style="stroke: #A80036; stroke-width: 1.0;"/><polygon fill="none" points="166.73,183.62,183.81,171.08,178.28,191.53,166.73,183.62" style="stroke: #A80036; stroke-width: 1.0;"/><!--link Piece to NullPiece--><path d="M306.03,187.59 C316.53,202.8 326.89,217.8 335.92,230.87 " fill="none" id="Piece-NullPiece" style="stroke: #A80036; stroke-width: 1.0;"/><polygon fill="none" points="300.23,191.51,294.63,171.08,311.76,183.56,300.23,191.51" style="stroke: #A80036; stroke-width: 1.0;"/><!--link Piece to Color--><path d="M359.88,89.5 C367.23,89.5 374.57,89.5 381.91,89.5 " fill="none" id="Piece-Color" style="stroke: #A80036; stroke-width: 1.0;"/><polygon fill="#A80036" points="346.67,89.5,352.67,93.5,358.67,89.5,352.67,85.5,346.67,89.5" style="stroke: #A80036; stroke-width: 1.0;"/><!--
@startuml pieceClassDiagram
abstract class Piece {
  + Piece(Position)
  + {abstract} std::vector<Position> getMoves()
  + {abstract} bool checkMove(Position pos)
  + void setMoved()
  + Piece promote()
  # bool hasMoved()
  # Color m_color
  # Position m_pos
  # bool m_hasMoved
}

enum Color {
  BLACK
  WHITE
}

class King extends Piece {
  + King(Position)
  + std::vector<Position> getMoves()
  + bool checkMove(Position pos)
}

class NullPiece extends Piece {
  + NullPiece(Position)
  + std::vector<Position> getMoves()
  + bool checkMove(Position pos)
}

Piece *- Color

@enduml

PlantUML version 1.2018.13(Mon Nov 26 09:11:51 PST 2018)
(GPL source distribution)
Java Runtime: OpenJDK Runtime Environment
JVM: OpenJDK 64-Bit Server VM
Java Version: 11.0.8+10-post-Ubuntu-0ubuntu120.04
Operating System: Linux
OS Version: 4.19.104-microsoft-standard
Default Encoding: UTF-8
Language: en
Country: null
--></g></svg>